PathFileType	4	(X/Y/Z)	C:\Users\WrightLab\Desktop\Jo\P2_Trial12.trc
DataRate	CameraRate	NumFrames	NumMarkers	Units	OrigDataRate	OrigDataStartFrame	OrigNumFrames
100.00	100.00	       17	19	mm	100.00	409	       653
Frame#	Time	Headset_Front			Headset_Back			Headset_Left			Headset_Right			Left_Shoulder			Right_Shoulder			Sternum			C7			Left Elbow			Right Elbow			Left Wrist			Right Wrist			Left ASIS			Right ASIS			S2			Left Knee			Right Knee			Left Ankle			Right Ankle			
		X1	Y1	Z1	X2	Y2	Z2	X3	Y3	Z3	X4	Y4	Z4	X5	Y5	Z5	X6	Y6	Z6	X7	Y7	Z7	X8	Y8	Z8	X9	Y9	Z9	X10	Y10	Z10	X11	Y11	Z11	X12	Y12	Z12	X13	Y13	Z13	X14	Y14	Z14	X15	Y15	Z15	X16	Y16	Z16	X17	Y17	Z17	X18	Y18	Z18	X19	Y19	Z19	

409	4.080	128.26749	1513.09229	1948.73145	297.28717	1628.99731	1896.16431	251.71455	1727.85938	1760.85535	78.74017	1587.70801	1830.61829	396.80991	1471.86877	1799.59106				208.73604	1369.11658	1790.38562				511.41464	1120.84021	1844.81116	24.80470	1200.80811	1528.26917	536.29822	885.28540	1881.87842	-16.82219	943.90131	1513.19788	241.83363	1097.60486	1834.48499	125.02164	1071.62268	1784.42798	313.10318	988.60919	1589.10388	409.59830	518.87830	1885.06836	127.81536	617.45911	1819.93640	338.95642	168.14160	1860.78821	176.94975	363.98010	1645.89819	
410	4.090	123.97589	1514.08850	1957.81958	292.66293	1629.79260	1905.47864	248.40324	1729.18506	1771.33203	75.80029	1588.24414	1837.58228	394.07098	1474.03467	1810.70850				206.00844	1371.05115	1800.15955				508.42661	1123.97388	1862.34766	25.96441	1202.69177	1533.75830	531.66162	888.83002	1903.80420	-14.09476	944.99750	1516.07800	238.61513	1098.86633	1843.38062	122.05456	1074.17920	1792.05847	311.11990	989.77008	1598.67834	404.58536	520.11115	1890.17932	118.65366	622.44379	1832.73486	338.96436	168.12959	1860.86719	174.76286	362.50195	1671.31262	
411	4.100	120.20695	1513.95605	1964.66223	288.55460	1630.82971	1915.90601	245.41666	1729.41003	1778.78430	71.65665	1589.88843	1847.29041	391.47192	1475.46960	1820.56702				203.55615	1371.91980	1806.69226				504.53931	1126.97949	1878.91272	27.07487	1204.05750	1539.77197	526.86823	892.46686	1924.64001	-12.39598	946.83380	1520.22681	235.54475	1100.04004	1852.40979	119.48345	1075.42627	1800.09851	309.11990	991.01483	1607.52405	399.10394	518.89825	1893.11719	109.56893	626.51776	1847.39331	338.95145	167.87111	1860.88062	171.97516	358.46814	1696.66064	
412	4.110	115.46898	1514.10645	1973.00085	284.33990	1630.68225	1925.19189	241.62575	1730.50671	1789.73901	68.62069	1589.51611	1854.48047	387.74866	1476.81958	1831.65649				201.06561	1373.15454	1816.45618				500.81287	1129.54456	1897.51221	27.96940	1205.30994	1546.17981	522.05469	895.99451	1946.17053	-9.84964	947.99597	1523.11511	233.16325	1100.31702	1860.60181	117.48686	1076.38245	1807.64539	306.24014	991.37878	1616.10120	395.34000	517.55554	1895.98767	99.04741	632.04144	1851.77356	338.69531	167.89772	1861.51062	169.14514	352.24451	1723.49109	
413	4.120	110.65462	1513.73645	1980.87500	279.83234	1631.09692	1934.04993	238.36559	1729.76135	1798.59961	64.21853	1589.86597	1862.74390	384.29352	1478.62561	1843.56042				198.07513	1373.56726	1824.12024				496.68549	1132.43835	1915.05798	28.83686	1206.20251	1552.62830	516.58704	899.91876	1968.63940	-7.79590	948.84845	1526.82593	229.99333	1100.79004	1870.27051	114.78424	1077.13306	1815.64563	304.61478	992.32953	1625.00183	391.59784	517.76758	1900.72595	87.47939	634.95190	1862.32141	338.52194	167.45561	1862.63489	166.63048	345.58282	1749.20154	
414	4.130	105.91407	1512.95020	1988.61853	275.74792	1630.11670	1943.86584	234.07993	1730.27710	1808.53198	59.78022	1589.58862	1870.92261	380.58490	1479.27661	1853.47852				194.89792	1374.47095	1833.63513				492.88641	1134.79834	1931.50330	29.50563	1206.80566	1559.37561	511.02322	903.55853	1990.03882	-6.21300	949.30206	1531.38428	227.50754	1100.67651	1879.11816	112.38020	1077.70068	1824.31555	301.72110	992.43005	1633.60205	386.64795	516.13702	1901.19043	78.03882	637.49762	1873.69592	338.64459	165.83179	1862.26575	163.23514	338.31625	1773.66138	
415	4.140	101.14225	1512.47339	1996.94836	270.84323	1630.00586	1953.70227	230.94150	1729.75208	1818.28601	56.07740	1589.32446	1878.58057	377.26120	1479.94873	1863.62256				192.23335	1374.39722	1841.57080				488.30228	1137.91968	1949.92651	30.15282	1207.30347	1566.01135	505.81244	907.30115	2011.17175	-4.33165	949.80164	1537.40881	224.66321	1100.02808	1888.36926	110.23889	1077.62561	1831.94458	300.03491	993.36371	1642.77942	383.53629	514.26465	1905.05212	68.09671	639.66644	1882.20093	338.48022	163.33650	1862.00903	159.16910	329.47076	1799.75330	
416	4.150	96.86031	1510.88318	2004.74573	265.98816	1628.78625	1962.63770	226.65593	1729.76868	1827.13477	51.66890	1588.41492	1887.77002	373.72220	1480.64453	1874.08179				189.57709	1374.29565	1849.35168				483.76242	1139.88745	1966.92236	30.64577	1206.85779	1572.77856	500.00827	910.31555	2032.45679	-2.98237	948.97009	1541.44800	222.37833	1099.42432	1896.45239	107.23861	1077.12659	1841.03552	297.98941	992.80859	1653.93518	379.96698	512.74762	1906.64636	57.56244	640.58612	1892.00159				152.03253	320.31967	1824.57019	
417	4.160	92.30369	1508.85730	2012.63782	262.00070	1627.51611	1971.44348	222.28906	1729.14319	1837.91589				369.97754	1480.52197	1883.25012				186.16812	1374.54346	1858.97766				479.17670	1141.75757	1982.93787	30.77701	1206.40808	1579.63525	494.57666	914.30505	2052.91968	-1.73788	949.00635	1547.08545	218.87883	1098.95215	1907.02454	105.08847	1076.57690	1848.75989	295.64316	993.63458	1659.44629	375.48822	509.46939	1906.04419	48.34867	642.42969	1900.02551				142.96477	309.20428	1850.90173	
418	4.170	87.46028	1507.20288	2020.52795	256.80130	1626.72461	1982.01526	217.94109	1728.40100	1847.29346				366.30237	1480.64465	1893.80017				182.76212	1373.67456	1866.72583				474.00589	1143.83691	1999.21313	30.70587	1205.59949	1586.47485	488.64160	916.89935	2073.54858	-0.51064	948.11737	1553.14526	216.28061	1098.05042	1915.93005	101.56648	1076.45190	1858.72986	293.19986	993.32220	1669.61572	373.25516	508.31021	1907.48486	38.32838	643.28864	1908.17102				130.15546	301.94724	1874.59766	
419	4.180	82.10163	1505.30505	2029.11938	251.52185	1625.82922	1990.57910	213.68918	1727.43042	1855.87927				362.00287	1480.41101	1903.47961				179.16330	1373.28052	1876.15686				468.74707	1145.91040	2014.92188	30.38753	1204.70215	1593.41479	482.68872	920.66724	2094.23340	0.61989	947.35968	1559.08984	213.13815	1096.84998	1924.37012	98.43353	1075.22473	1867.05688	291.33899	992.45044	1677.88098	371.36890	506.28546	1909.10974	28.14829	643.80103	1914.77161				116.23493	293.10187	1898.18457	
420	4.190	77.87086	1502.42993	2035.89978	246.93495	1623.91199	1999.55115	208.92548	1726.77661	1866.96472				358.19943	1480.24048	1912.87744				175.49933	1372.67200	1885.22900				462.90579	1147.66113	2031.18152	29.33849	1203.43994	1600.46204	476.58884	923.36591	2114.02930	1.05889	945.31927	1565.41016	209.50363	1095.89514	1934.13892	95.71523	1074.10339	1875.37329	288.06284	992.92053	1687.14978	370.56323	505.21719	1909.30798	19.51322	642.83649	1923.06506				101.61174	284.68054	1923.59326	
421	4.200	72.86755	1500.26990	2043.58801	241.42393	1622.71265	2010.28638	204.19711	1725.85474	1876.60681				354.16016	1479.17712	1922.51318				171.52412	1370.99207	1893.54370				457.12915	1149.46484	2046.92444	28.46122	1201.90527	1607.02454	470.35291	927.17163	2133.60986	2.09071	944.00165	1571.25647	206.29906	1094.69836	1942.06580	92.27651	1072.90112	1883.98828	285.32227	991.14801	1696.35583	368.86990	504.05191	1911.03308	9.88105	643.80243	1929.23096				86.68883	277.18631	1947.75989	
422	4.210	67.60288	1498.05432	2051.62256	236.26013	1621.06641	2019.59473	199.23892	1724.24426	1886.48047				349.87073	1478.68921	1931.59912				168.12891	1369.65515	1901.54614				451.58685	1151.17261	2062.15332	27.43630	1200.46509	1614.22717	463.59619	930.21136	2153.83667	2.52935	941.98621	1579.97681	202.63571	1093.94263	1951.56299	88.20689	1072.24854	1894.28687	281.98187	990.68616	1705.16711	368.41232	502.76904	1910.85742	1.61829	644.77502	1936.43591				70.73277	269.13934	1971.46448	
423	4.220	62.22583	1495.86438	2059.63306	230.88219	1619.02112	2028.75073	194.40160	1723.20776	1896.13721				345.63638	1477.60034	1941.94592				163.99977	1368.43066	1911.93530				445.99014	1152.81360	2076.94165	25.62300	1198.72131	1621.79480	456.95145	933.68005	2172.75342	3.06297	940.83710	1586.41724	198.91182	1093.49353	1960.10913	84.84676	1070.87512	1902.34570	279.56262	989.57251	1713.09473	367.86914	501.68823	1912.45654	-6.59072	645.26282	1950.72998				55.32330	259.33026	1997.72742	
424	4.230	57.21991	1493.22913	2066.90771	225.60886	1616.62805	2037.59778	189.45230	1721.14490	1905.59436				341.03671	1476.10803	1950.50317				160.29071	1366.60193	1919.34863				439.46786	1154.37512	2090.74634	23.97663	1196.70239	1628.49072	450.57321	936.70972	2190.62549	3.19392	938.47656	1592.20532	195.42349	1092.48254	1969.28503	81.48053	1069.30212	1910.85681	275.96307	986.71552	1723.64954	367.94800	500.83282	1912.76563	-11.19202	645.44403	1959.09827				38.34269	251.90559	2024.06177	
425	4.240	51.78122	1490.67688	2075.10034	220.02748	1614.25757	2046.68860	184.84070	1719.48633	1914.41089				336.31253	1474.17651	1959.10608				155.05968	1365.16833	1928.35840				433.64215	1154.95776	2103.70581	22.02478	1194.69250	1636.89966	443.68723	939.84180	2208.50562	3.27170	936.54059	1601.40100	191.54166	1091.16504	1977.48730	77.22456	1068.31677	1921.18884	272.48303	985.22870	1735.25366	368.01547	499.73062	1913.44238	-15.59757	644.88806	1968.90942				21.62159	244.91420	2046.72534	
